<?xml version="1.0" encoding="UTF-8" standalone="no" ?>
<!DOCTYPE svg PUBLIC "-//W3C//DTD SVG 1.1//EN" "http://www.w3.org/Graphics/SVG/1.1/DTD/svg11.dtd">
<svg xmlns="http://www.w3.org/2000/svg" xmlns:xlink="http://www.w3.org/1999/xlink" version="1.1" width="1024" height="1024" viewBox="0 0 1024 1024" xml:space="preserve">
<desc>Created with Fabric.js 3.1.0</desc>
<defs>
</defs>
<g transform="matrix(1 0 0 1 512 512)" id="background-logo"  >
<rect style="stroke: none; stroke-width: 1; stroke-dasharray: none; stroke-linecap: butt; stroke-dashoffset: 0; stroke-linejoin: miter; stroke-miterlimit: 4; fill: rgb(255,255,255); fill-rule: nonzero; opacity: 1;"  paint-order="stroke"  x="-512" y="-512" rx="0" ry="0" width="1024" height="1024" />
</g>
<g transform="matrix(1.5745007680491552 0 0 1.5745007680491552 512 430.5659740956626)" style="" id="logo-logo"  >
	<g transform="matrix(1.327447216890595 0 0 1.327447216890595 0 0)"  >
<path style="stroke: none; stroke-width: 1; stroke-dasharray: none; stroke-linecap: butt; stroke-dashoffset: 0; stroke-linejoin: miter; stroke-miterlimit: 4; fill: rgb(255,255,255); fill-rule: nonzero; opacity: 1;"  paint-order="stroke"  transform=" translate(-99.95, -99.97488041562481)" d="M 195.6 110.1 c 0.1 -1.1 1 -2.4 1.8 -3.8 c 1.2 -1.8 2.5 -3.9 2.5 -6.3 c 0 -2.4 -1.3 -4.5 -2.5 -6.3 c -0.9 -1.4 -1.7 -2.7 -1.8 -3.8 c -0.1 -1.2 0.4 -2.6 1 -4.2 c 0.8 -2.1 1.6 -4.3 1.2 -6.6 c -0.5 -2.3 -2.2 -4.1 -3.8 -5.6 c -1.2 -1.2 -2.3 -2.3 -2.6 -3.4 c -0.4 -1.1 -0.1 -2.7 0.1 -4.3 c 0.3 -2.2 0.7 -4.6 -0.2 -6.7 c -1 -2.1 -3 -3.5 -4.8 -4.7 c -1.4 -0.9 -2.7 -1.8 -3.3 -2.7 c -0.6 -1 -0.7 -2.6 -0.8 -4.2 c -0.1 -2.2 -0.3 -4.6 -1.6 -6.5 c -1.4 -1.9 -3.7 -2.8 -5.7 -3.6 c -1.5 -0.6 -3 -1.2 -3.8 -2 c -0.8 -0.8 -1.2 -2.4 -1.6 -4 c -0.6 -2.1 -1.2 -4.5 -2.9 -6 c -1.7 -1.6 -4.2 -2 -6.3 -2.3 c -1.6 -0.3 -3.2 -0.5 -4.1 -1.2 c -0.9 -0.7 -1.6 -2.1 -2.4 -3.5 c -1 -1.9 -2.1 -4.1 -4.1 -5.3 c -2 -1.2 -4.5 -1.1 -6.6 -0.9 c -1.7 0.1 -3.2 0.2 -4.3 -0.3 c -1 -0.5 -2 -1.7 -3 -3 c -1.4 -1.7 -2.9 -3.6 -5.2 -4.3 c -2.2 -0.7 -4.6 -0.1 -6.7 0.5 c -1.6 0.4 -3.1 0.8 -4.3 0.6 c -1.1 -0.2 -2.3 -1.2 -3.6 -2.2 c -1.7 -1.4 -3.6 -2.9 -6 -3.2 c -2.3 -0.2 -4.4 0.8 -6.4 1.8 c -1.4 0.7 -2.9 1.5 -4.1 1.5 c -1.2 0 -2.6 -0.8 -4.1 -1.5 c -2 -1 -4.1 -2.1 -6.4 -1.8 c -2.3 0.2 -4.3 1.8 -6 3.2 c -1.3 1 -2.5 2 -3.6 2.2 c -1.1 0.2 -2.6 -0.2 -4.3 -0.6 c -2.1 -0.6 -4.5 -1.2 -6.7 -0.5 c -2.2 0.7 -3.8 2.6 -5.2 4.3 c -1 1.3 -2 2.5 -3 3 c -1 0.5 -2.6 0.4 -4.3 0.3 c -2.2 -0.1 -4.6 -0.2 -6.6 0.9 c -2 1.2 -3.1 3.4 -4.1 5.3 c -0.8 1.5 -1.5 2.9 -2.4 3.5 c -0.9 0.7 -2.5 0.9 -4.1 1.2 c -2.1 0.3 -4.6 0.7 -6.3 2.3 c -1.7 1.6 -2.4 3.9 -2.9 6 c -0.4 1.6 -0.8 3.1 -1.6 4 c -0.8 0.8 -2.2 1.4 -3.8 2 c -2 0.8 -4.3 1.7 -5.7 3.6 c -1.4 1.9 -1.5 4.3 -1.6 6.5 c -0.1 1.7 -0.2 3.2 -0.8 4.2 c -0.6 1 -1.9 1.8 -3.3 2.7 c -1.8 1.2 -3.9 2.5 -4.8 4.7 c -0.9 2.1 -0.6 4.5 -0.2 6.7 c 0.3 1.7 0.5 3.2 0.1 4.3 c -0.3 1.1 -1.4 2.2 -2.6 3.4 c -1.5 1.6 -3.3 3.3 -3.8 5.6 c -0.5 2.3 0.4 4.5 1.2 6.6 c 0.6 1.6 1.2 3.1 1 4.2 c -0.1 1.1 -1 2.4 -1.8 3.8 C 1.3 95.5 0 97.6 0 100 s 1.3 4.5 2.5 6.3 c 0.9 1.4 1.7 2.7 1.8 3.8 c 0.1 1.2 -0.4 2.6 -1 4.2 c -0.8 2.1 -1.6 4.3 -1.2 6.6 c 0.5 2.3 2.2 4.1 3.8 5.6 c 1.2 1.2 2.3 2.3 2.6 3.4 c 0.4 1.1 0.1 2.7 -0.1 4.3 c -0.3 2.2 -0.7 4.6 0.2 6.7 c 1 2.1 3 3.5 4.8 4.7 c 1.4 0.9 2.7 1.8 3.3 2.7 c 0.6 1 0.7 2.6 0.8 4.2 c 0.1 2.2 0.3 4.6 1.6 6.5 c 1.4 1.9 3.7 2.8 5.7 3.6 c 1.5 0.6 3 1.2 3.8 2 c 0.8 0.8 1.2 2.4 1.6 4 c 0.6 2.1 1.2 4.5 2.9 6 c 1.7 1.6 4.2 2 6.3 2.3 c 1.6 0.3 3.2 0.5 4.1 1.2 c 0.9 0.7 1.6 2.1 2.4 3.5 c 1 1.9 2.1 4.1 4.1 5.3 c 2 1.2 4.5 1.1 6.6 0.9 c 1.7 -0.1 3.2 -0.2 4.3 0.3 c 1 0.5 2 1.7 3 3 c 1.4 1.7 2.9 3.6 5.2 4.3 c 2.2 0.7 4.6 0.1 6.7 -0.5 c 1.6 -0.4 3.1 -0.8 4.3 -0.6 c 1.1 0.2 2.3 1.2 3.6 2.2 c 1.7 1.4 3.6 2.9 6 3.2 c 0.2 0 0.4 0 0.7 0 c 2 0 3.9 -1 5.7 -1.9 c 1.4 -0.7 2.9 -1.5 4.1 -1.5 c 1.2 0 2.6 0.8 4.1 1.5 c 2 1 4.1 2.1 6.4 1.8 c 2.3 -0.2 4.3 -1.8 6 -3.2 c 1.3 -1 2.5 -2 3.6 -2.2 c 1.1 -0.2 2.6 0.2 4.3 0.6 c 2.1 0.6 4.5 1.2 6.7 0.5 c 2.2 -0.7 3.8 -2.6 5.2 -4.3 c 1 -1.3 2 -2.5 3 -3 c 1 -0.5 2.6 -0.4 4.3 -0.3 c 2.2 0.1 4.6 0.2 6.6 -0.9 c 2 -1.2 3.1 -3.4 4.1 -5.3 c 0.8 -1.5 1.5 -2.9 2.4 -3.5 c 0.9 -0.7 2.5 -0.9 4.1 -1.2 c 2.1 -0.3 4.6 -0.7 6.3 -2.3 c 1.7 -1.6 2.4 -3.9 2.9 -6 c 0.4 -1.6 0.8 -3.1 1.6 -4 c 0.8 -0.8 2.2 -1.4 3.8 -2 c 2 -0.8 4.3 -1.7 5.7 -3.6 c 1.4 -1.9 1.5 -4.3 1.6 -6.5 c 0.1 -1.7 0.2 -3.2 0.8 -4.2 c 0.6 -1 1.9 -1.8 3.3 -2.7 c 1.8 -1.2 3.9 -2.5 4.8 -4.7 c 0.9 -2.1 0.6 -4.5 0.2 -6.7 c -0.3 -1.7 -0.5 -3.2 -0.1 -4.3 c 0.3 -1.1 1.4 -2.2 2.6 -3.4 c 1.5 -1.6 3.3 -3.3 3.8 -5.6 c 0.5 -2.3 -0.4 -4.5 -1.2 -6.6 C 196.1 112.7 195.5 111.3 195.6 110.1 z M 191.7 109.7 c -0.2 2.1 0.5 4.1 1.3 6 c 0.6 1.7 1.2 3.2 1 4.4 c -0.2 1.2 -1.4 2.4 -2.7 3.7 c -1.4 1.4 -2.9 2.9 -3.5 4.9 c -0.6 2 -0.3 4.1 0 6.1 c 0.3 1.8 0.5 3.4 0.1 4.5 c -0.5 1.1 -1.9 2 -3.4 3 c -1.7 1.1 -3.5 2.3 -4.5 4.1 c -1 1.8 -1.2 3.9 -1.3 6 c -0.1 1.8 -0.2 3.5 -0.9 4.4 c -0.7 1 -2.3 1.6 -3.9 2.2 c -1.9 0.7 -3.9 1.5 -5.3 3.1 s -1.9 3.6 -2.5 5.6 c -0.4 1.7 -0.9 3.4 -1.8 4.2 c -0.9 0.8 -2.5 1.1 -4.3 1.3 c -2 0.3 -4.1 0.7 -5.8 1.9 c -1.7 1.2 -2.6 3.1 -3.6 4.9 c -0.8 1.5 -1.6 3.1 -2.6 3.7 c -1 0.6 -2.7 0.5 -4.5 0.4 c -2 -0.1 -4.2 -0.2 -6.1 0.6 c -1.9 0.8 -3.2 2.5 -4.5 4.1 c -1.1 1.3 -2.2 2.7 -3.3 3.1 c -1.1 0.4 -2.7 -0.1 -4.4 -0.5 c -2 -0.5 -4 -1.1 -6.1 -0.6 c -2 0.4 -3.6 1.7 -5.2 3 c -1.3 1.1 -2.7 2.2 -3.9 2.3 c -1.1 0.1 -2.6 -0.6 -4.2 -1.4 c -1.8 -0.9 -3.7 -1.9 -5.8 -1.9 c -2.1 0 -4 1 -5.8 1.9 c -1.6 0.8 -3.1 1.6 -4.2 1.4 c -1.2 -0.1 -2.5 -1.2 -3.9 -2.3 c -1.6 -1.3 -3.2 -2.6 -5.2 -3 c -0.5 -0.1 -1 -0.2 -1.6 -0.2 c -1.5 0 -3 0.4 -4.5 0.8 c -1.7 0.5 -3.3 0.9 -4.4 0.5 c -1.1 -0.4 -2.2 -1.7 -3.3 -3.1 c -1.3 -1.6 -2.6 -3.2 -4.5 -4.1 c -1.9 -0.9 -4 -0.7 -6.1 -0.6 c -1.8 0.1 -3.5 0.2 -4.5 -0.4 c -1 -0.6 -1.8 -2.2 -2.6 -3.7 c -0.9 -1.8 -1.9 -3.7 -3.6 -4.9 c -1.7 -1.2 -3.8 -1.6 -5.8 -1.9 c -1.8 -0.3 -3.4 -0.6 -4.3 -1.3 c -0.9 -0.8 -1.3 -2.5 -1.8 -4.2 c -0.5 -2 -1.1 -4 -2.5 -5.6 c -1.4 -1.5 -3.4 -2.3 -5.3 -3 c -1.7 -0.6 -3.2 -1.3 -3.9 -2.2 c -0.7 -1 -0.8 -2.6 -0.9 -4.4 c -0.1 -2.1 -0.2 -4.2 -1.3 -6 c -1 -1.8 -2.8 -2.9 -4.5 -4.1 c -1.5 -1 -2.9 -1.9 -3.4 -3 c -0.5 -1.1 -0.2 -2.7 0.1 -4.5 c 0.3 -2 0.6 -4.1 0 -6.1 c -0.6 -2 -2.1 -3.5 -3.5 -4.9 c -1.3 -1.3 -2.5 -2.5 -2.7 -3.7 c -0.2 -1.1 0.4 -2.7 1 -4.4 c 0.7 -1.9 1.5 -3.9 1.3 -6 c -0.2 -2 -1.3 -3.8 -2.4 -5.5 c -1 -1.5 -1.9 -3 -1.9 -4.2 c 0 -1.2 0.9 -2.7 1.9 -4.2 c 1.1 -1.7 2.2 -3.5 2.4 -5.5 c 0.2 -2.1 -0.5 -4.1 -1.3 -6 c -0.6 -1.7 -1.2 -3.2 -1 -4.4 c 0.2 -1.2 1.4 -2.4 2.7 -3.7 c 1.4 -1.4 2.9 -2.9 3.5 -4.9 c 0.6 -2 0.3 -4.1 0 -6.1 c -0.3 -1.8 -0.5 -3.4 -0.1 -4.5 c 0.5 -1.1 1.9 -2 3.4 -3 c 1.7 -1.1 3.5 -2.3 4.5 -4.1 c 1 -1.8 1.2 -3.9 1.3 -6 c 0.1 -1.8 0.2 -3.5 0.9 -4.4 c 0.7 -1 2.3 -1.6 3.9 -2.2 c 1.9 -0.7 3.9 -1.5 5.3 -3 c 1.4 -1.5 1.9 -3.6 2.5 -5.6 c 0.4 -1.7 0.9 -3.4 1.8 -4.2 c 0.9 -0.8 2.5 -1.1 4.3 -1.3 c 2 -0.3 4.1 -0.7 5.8 -1.9 c 1.7 -1.2 2.6 -3.1 3.6 -4.9 c 0.8 -1.5 1.6 -3.1 2.6 -3.7 c 1 -0.6 2.7 -0.5 4.5 -0.4 c 2.1 0.1 4.2 0.2 6.1 -0.6 c 1.9 -0.8 3.2 -2.5 4.5 -4.1 c 1.1 -1.3 2.2 -2.7 3.3 -3.1 c 1.1 -0.4 2.7 0.1 4.4 0.5 c 2 0.5 4 1.1 6.1 0.6 c 2 -0.4 3.6 -1.7 5.2 -3 c 1.3 -1.1 2.7 -2.2 3.9 -2.3 c 1.1 -0.1 2.6 0.6 4.2 1.4 c 1.8 0.9 3.7 1.9 5.8 1.9 s 4 -1 5.8 -1.9 c 1.6 -0.8 3.1 -1.6 4.2 -1.4 c 1.2 0.1 2.5 1.2 3.9 2.3 c 1.6 1.3 3.2 2.6 5.2 3 c 2 0.4 4.1 -0.1 6.1 -0.6 c 1.7 -0.5 3.3 -0.9 4.4 -0.5 c 1.1 0.4 2.2 1.7 3.3 3.1 c 1.3 1.6 2.6 3.2 4.5 4.1 c 1.9 0.8 4 0.7 6.1 0.6 c 1.8 -0.1 3.5 -0.2 4.5 0.4 c 1 0.6 1.8 2.2 2.6 3.7 c 0.9 1.8 1.9 3.7 3.6 4.9 c 1.7 1.2 3.8 1.6 5.8 1.9 c 1.8 0.3 3.4 0.6 4.3 1.3 c 0.9 0.8 1.3 2.5 1.8 4.2 c 0.5 2 1.1 4 2.5 5.6 c 1.4 1.5 3.4 2.3 5.3 3.1 c 1.7 0.6 3.2 1.3 3.9 2.2 c 0.7 1 0.8 2.6 0.9 4.4 c 0.1 2.1 0.2 4.2 1.3 6 c 1 1.8 2.8 2.9 4.5 4.1 c 1.5 1 2.9 1.9 3.4 3 c 0.5 1.1 0.2 2.7 -0.1 4.5 c -0.3 2 -0.6 4.1 0 6.1 c 0.6 2 2.1 3.5 3.5 4.9 c 1.3 1.3 2.5 2.5 2.7 3.7 c 0.2 1.1 -0.4 2.7 -1 4.4 c -0.7 1.9 -1.5 3.9 -1.3 6 c 0.2 2 1.3 3.8 2.4 5.5 c 1 1.5 1.9 3 1.9 4.2 c 0 1.2 -0.9 2.7 -1.9 4.2 C 193.1 105.9 191.9 107.7 191.7 109.7 z" stroke-linecap="round" />
</g>
	<g transform="matrix(1.327447216890595 0 0 1.327447216890595 0.06587332053743467 0.03293666026868891)"  >
<path style="stroke: none; stroke-width: 1; stroke-dasharray: none; stroke-linecap: butt; stroke-dashoffset: 0; stroke-linejoin: miter; stroke-miterlimit: 4; fill: rgb(255,255,255); fill-rule: nonzero; opacity: 1;"  paint-order="stroke"  transform=" translate(-100, -100)" d="M 100 20.9 c -43.6 0 -79.1 35.5 -79.1 79.1 s 35.5 79.1 79.1 79.1 s 79.1 -35.5 79.1 -79.1 S 143.6 20.9 100 20.9 z M 100 178.2 c -43.1 0 -78.2 -35.1 -78.2 -78.2 S 56.9 21.8 100 21.8 s 78.2 35.1 78.2 78.2 S 143.1 178.2 100 178.2 z" stroke-linecap="round" />
</g>
	<g transform="matrix(1.327447216890595 0 0 1.327447216890595 0.06587332053743467 0.03293666026868891)"  >
<path style="stroke: none; stroke-width: 1; stroke-dasharray: none; stroke-linecap: butt; stroke-dashoffset: 0; stroke-linejoin: miter; stroke-miterlimit: 4; fill: rgb(255,255,255); fill-rule: nonzero; opacity: 1;"  paint-order="stroke"  transform=" translate(-100.00000000000001, -100.00000000000001)" d="M 100 11.7 c -48.7 0 -88.3 39.6 -88.3 88.3 s 39.6 88.3 88.3 88.3 s 88.3 -39.6 88.3 -88.3 S 148.7 11.7 100 11.7 z M 100 185.4 c -47.1 0 -85.4 -38.3 -85.4 -85.4 S 52.9 14.6 100 14.6 s 85.4 38.3 85.4 85.4 S 147.1 185.4 100 185.4 z" stroke-linecap="round" />
</g>
</g>
<g transform="matrix(1.5745007680491552 0 0 1.5745007680491552 512 733.6884993115567)"  >
<filter id="SVGID_65792" y="-20%" height="140%" x="-20%" width="140%" >
	<feGaussianBlur in="SourceAlpha" stdDeviation="0"></feGaussianBlur>
	<feOffset dx="0" dy="0" result="oBlur" ></feOffset>
	<feFlood flood-color="rgb(0,0,0)" flood-opacity="1"/>
	<feComposite in2="oBlur" operator="in" />
	<feMerge>
		<feMergeNode></feMergeNode>
		<feMergeNode in="SourceGraphic"></feMergeNode>
	</feMerge>
</filter>
<path style="stroke: none; stroke-width: 1; stroke-dasharray: none; stroke-linecap: butt; stroke-dashoffset: 0; stroke-linejoin: miter; stroke-miterlimit: 10; fill: rgb(255,255,255); fill-rule: nonzero; opacity: 1;filter: url(#SVGID_65792);"  paint-order="stroke"  transform=" translate(-128.735, 23.9)" d="M 5.01 -2.12 L 5.01 -58.56 L 10.28 -58.56 L 10.28 -2.12 L 5.01 -2.12 Z M 40.34 -44.83 L 40.34 -44.83 Q 49.73 -44.83 55.92 -38.04 L 55.92 -38.04 Q 61.53 -31.8 61.53 -23.3 L 61.53 -23.3 Q 61.53 -14.81 55.59 -8.44 Q 49.65 -2.08 40.34 -2.08 L 40.34 -2.08 Q 30.99 -2.08 25.07 -8.44 Q 19.15 -14.81 19.15 -23.3 L 19.15 -23.3 Q 19.15 -31.77 24.75 -38 L 24.75 -38 Q 30.95 -44.83 40.34 -44.83 Z M 40.34 -39.71 L 40.34 -39.71 Q 33.84 -39.71 29.17 -34.88 Q 24.49 -30.06 24.49 -23.23 L 24.49 -23.23 Q 24.49 -18.81 26.63 -14.97 Q 28.76 -11.13 32.4 -9.07 Q 36.03 -7.01 40.34 -7.01 L 40.34 -7.01 Q 44.72 -7.01 48.33 -9.07 Q 51.95 -11.13 54.07 -14.97 Q 56.18 -18.81 56.18 -23.23 L 56.18 -23.23 Q 56.18 -30.06 51.51 -34.88 Q 46.83 -39.71 40.34 -39.71 Z M 83.5 -6.16 L 66.8 -43.79 L 72.33 -43.79 L 86.32 -12.43 L 99.9 -43.79 L 105.5 -43.79 L 81.2 11.76 L 75.67 11.76 L 83.5 -6.16 Z M 131.44 -44.83 L 131.44 -44.83 Q 140.83 -44.83 147.03 -38.04 L 147.03 -38.04 Q 152.74 -31.84 152.74 -23.3 L 152.74 -23.3 Q 152.82 -2.23 152.74 -1.89 L 152.74 -1.89 Q 149.18 -1.89 147.21 -1.89 L 147.21 -1.89 Q 147.21 -2.15 147.21 -11.13 L 147.21 -11.13 Q 142.87 -3.04 131.44 -2.08 L 131.44 -2.08 Q 122.09 -2.08 116.17 -8.44 Q 110.25 -14.81 110.25 -23.3 L 110.25 -23.3 Q 110.25 -31.77 115.86 -38 L 115.86 -38 Q 122.05 -44.83 131.44 -44.83 Z M 131.44 -39.71 L 131.44 -39.71 Q 124.95 -39.71 120.27 -34.88 Q 115.6 -30.06 115.6 -23.23 L 115.6 -23.23 Q 115.6 -18.81 117.99 -14.73 Q 120.38 -10.65 126.1 -7.83 L 126.1 -7.83 Q 140.42 -4.64 146.47 -20.86 L 146.47 -20.86 Q 146.8 -26.05 145.36 -30.8 L 145.36 -30.8 Q 144.32 -32.95 142.5 -34.88 L 142.5 -34.88 Q 137.94 -39.71 131.44 -39.71 Z M 162.09 -2.12 L 162.09 -58.56 L 167.36 -58.56 L 167.36 -2.12 L 162.09 -2.12 Z M 180.02 -59.56 L 180.02 -59.56 Q 181.8 -59.56 183.08 -58.3 Q 184.36 -57.04 184.36 -55.26 L 184.36 -55.26 Q 184.36 -53.47 183.08 -52.19 Q 181.8 -50.91 180.02 -50.91 L 180.02 -50.91 Q 178.24 -50.91 176.97 -52.19 Q 175.71 -53.47 175.71 -55.26 L 175.71 -55.26 Q 175.71 -57.04 176.97 -58.3 Q 178.24 -59.56 180.02 -59.56 Z M 177.42 -2.12 L 177.42 -42.82 L 182.65 -42.82 L 182.65 -2.12 L 177.42 -2.12 Z M 208.15 -7.87 L 208.15 -7.87 Q 204.29 -5.79 200.58 -7.53 L 200.58 -7.53 Q 196.05 -10.98 196.27 -17.37 L 196.27 -17.37 L 196.27 -34.59 L 205.92 -34.59 L 205.92 -39.08 L 196.23 -39.08 L 196.23 -58.74 L 190.96 -58.74 L 190.96 -16.48 Q 190.89 -12.02 193.01 -8.31 L 193.01 -8.31 Q 196.49 -2.41 202.51 -2.08 L 202.51 -2.08 Q 205.7 -1.97 209.78 -3.53 L 209.78 -3.53 Q 209.15 -5.08 208.15 -7.87 Z M 230.45 -6.16 L 213.75 -43.79 L 219.28 -43.79 L 233.27 -12.43 L 246.85 -43.79 L 252.46 -43.79 L 228.15 11.76 L 222.62 11.76 L 230.45 -6.16 Z" stroke-linecap="round" />
</g>
<g transform="matrix(1.5745007680491552 0 0 1.5745007680491552 512 425.56867184989284)"  >
<filter id="SVGID_65793" y="-20%" height="140%" x="-20%" width="140%" >
	<feGaussianBlur in="SourceAlpha" stdDeviation="0"></feGaussianBlur>
	<feOffset dx="0" dy="0" result="oBlur" ></feOffset>
	<feFlood flood-color="rgb(0,0,0)" flood-opacity="1"/>
	<feComposite in2="oBlur" operator="in" />
	<feMerge>
		<feMergeNode></feMergeNode>
		<feMergeNode in="SourceGraphic"></feMergeNode>
	</feMerge>
</filter>
<path style="stroke: none; stroke-width: 1; stroke-dasharray: none; stroke-linecap: butt; stroke-dashoffset: 0; stroke-linejoin: miter; stroke-miterlimit: 4; fill: rgb(255,255,255); fill-rule: nonzero; opacity: 1;filter: url(#SVGID_65793);"  paint-order="stroke"  transform=" translate(-22.85, 54.125)" d="M 7.58 -1.65 Q 4.17 -5.13 4.17 -11.35 Q 4.17 -17.58 11.61 -51.09 Q 19.04 -84.59 19.04 -99.46 L 19.04 -99.46 L 18.16 -106.05 Q 29.88 -110.08 40.06 -110.08 L 40.06 -110.08 Q 41.53 -107.96 41.53 -102.76 L 41.53 -102.76 Q 41.53 -90.75 33.95 -56.32 Q 26.37 -21.9 26.37 -16.26 Q 26.37 -10.62 27.76 -10.62 L 27.76 -10.62 L 38.23 -14.43 L 40.94 -9.16 Q 35.82 -5.13 28.56 -1.65 Q 21.31 1.83 16.15 1.83 Q 10.99 1.83 7.58 -1.65 Z" stroke-linecap="round" />
</g>
</svg>